<?xml version="1.0" encoding="UTF-8" standalone="no"?>
<!DOCTYPE svg PUBLIC "-//W3C//DTD SVG 1.1//EN" "http://www.w3.org/Graphics/SVG/1.1/DTD/svg11.dtd">
<svg width="100%" height="100%" viewBox="0 0 800 800" version="1.1" xmlns="http://www.w3.org/2000/svg" xmlns:xlink="http://www.w3.org/1999/xlink" xml:space="preserve" xmlns:serif="http://www.serif.com/" style="fill-rule:evenodd;clip-rule:evenodd;stroke-linecap:round;stroke-linejoin:round;stroke-miterlimit:1.5;">
    <g>
        <g transform="matrix(4.04223,0,0,4.04223,-1362.29,-1491.95)">
            <path d="M431.282,495.348L434.915,494.383L439.063,494.814L444.781,499.587L448.718,503.797L451.946,507.457L454.783,510.376L457.468,514.008L459.723,518.526L460.834,524.161L461.287,529.363L461.745,534.034L462.163,538.723L462.307,543.501L461.972,547.249L460.939,550.724L459.52,553.813L458.337,555.996L455.929,558.158L452.985,559.904L449.11,560.75L444.661,561.2L440.211,561.392L436.323,561.622L431.991,561.542L427.756,561.196L423.652,560.812L419.732,559.376L416.351,557.244L413.358,554.849L411.139,551.295L409.793,547.496L409.633,542.192L409.745,537.227L410.139,531.784L410.556,526.6L411.844,521.66L412.969,516.863L415.107,512.527L417.677,508.608L420.469,505.423L423.749,502.281L427.071,498.835L431.282,495.348Z" style="stroke:black;stroke-width:0.25px;"/>
        </g>
        <g transform="matrix(4.04223,0,0,-4.04223,-1362.29,2291.95)">
            <path d="M431.282,495.348L434.915,494.383L439.063,494.814L444.781,499.587L448.718,503.797L451.946,507.457L454.783,510.376L457.468,514.008L459.723,518.526L460.834,524.161L461.287,529.363L461.745,534.034L462.163,538.723L462.307,543.501L461.972,547.249L460.939,550.724L459.52,553.813L458.337,555.996L455.929,558.158L452.985,559.904L449.11,560.75L444.661,561.2L440.211,561.392L436.323,561.622L431.991,561.542L427.756,561.196L423.652,560.812L419.732,559.376L416.351,557.244L413.358,554.849L411.139,551.295L409.793,547.496L409.633,542.192L409.745,537.227L410.139,531.784L410.556,526.6L411.844,521.66L412.969,516.863L415.107,512.527L417.677,508.608L420.469,505.423L423.749,502.281L427.071,498.835L431.282,495.348Z" style="stroke:black;stroke-width:0.25px;"/>
        </g>
        <g transform="matrix(2.47515e-16,4.04223,4.04223,-2.47515e-16,-1491.95,-1362.29)">
            <path d="M431.282,495.348L434.915,494.383L439.063,494.814L444.781,499.587L448.718,503.797L451.946,507.457L454.783,510.376L457.468,514.008L459.723,518.526L460.834,524.161L461.287,529.363L461.745,534.034L462.163,538.723L462.307,543.501L461.972,547.249L460.939,550.724L459.52,553.813L458.337,555.996L455.929,558.158L452.985,559.904L449.11,560.75L444.661,561.2L440.211,561.392L436.323,561.622L431.991,561.542L427.756,561.196L423.652,560.812L419.732,559.376L416.351,557.244L413.358,554.849L411.139,551.295L409.793,547.496L409.633,542.192L409.745,537.227L410.139,531.784L410.556,526.6L411.844,521.66L412.969,516.863L415.107,512.527L417.677,508.608L420.469,505.423L423.749,502.281L427.071,498.835L431.282,495.348Z" style="stroke:black;stroke-width:0.25px;"/>
        </g>
        <g transform="matrix(-2.47515e-16,4.04223,-4.04223,-2.47515e-16,2291.95,-1362.29)">
            <path d="M431.282,495.348L434.915,494.383L439.063,494.814L444.781,499.587L448.718,503.797L451.946,507.457L454.783,510.376L457.468,514.008L459.723,518.526L460.834,524.161L461.287,529.363L461.745,534.034L462.163,538.723L462.307,543.501L461.972,547.249L460.939,550.724L459.52,553.813L458.337,555.996L455.929,558.158L452.985,559.904L449.11,560.75L444.661,561.2L440.211,561.392L436.323,561.622L431.991,561.542L427.756,561.196L423.652,560.812L419.732,559.376L416.351,557.244L413.358,554.849L411.139,551.295L409.793,547.496L409.633,542.192L409.745,537.227L410.139,531.784L410.556,526.6L411.844,521.66L412.969,516.863L415.107,512.527L417.677,508.608L420.469,505.423L423.749,502.281L427.071,498.835L431.282,495.348Z" style="stroke:black;stroke-width:0.25px;"/>
        </g>
        <g transform="matrix(1.44786,-0.130938,0.130938,1.44786,-338.813,-217.519)">
            <g transform="matrix(0.842555,-0.538611,0.490954,0.768004,-198.915,397.306)">
                <rect x="489.038" y="489.888" width="93.622" height="223.722" style="fill:rgb(255,121,4);stroke:black;stroke-width:0.72px;"/>
            </g>
            <g transform="matrix(-1.00212,0.658355,-0.549072,-0.835775,1718.97,824.258)">
                <path d="M701.583,645.389L760.808,753.776L642.358,753.776L701.583,645.389Z" style="fill:rgb(255,121,4);stroke:black;stroke-width:0.62px;"/>
            </g>
            <g transform="matrix(0.835869,-0.534337,0.538611,0.842555,-215.388,363.597)">
                <rect x="489.038" y="489.888" width="93.622" height="223.722" style="fill:rgb(255,121,4);"/>
            </g>
        </g>
    </g>
</svg>
